<mxfile host="app.diagrams.net" modified="2024-02-03T09:44:18.459Z" agent="Mozilla/5.0 (Windows NT 10.0; Win64; x64) AppleWebKit/537.36 (KHTML, like Gecko) Chrome/121.0.0.0 Safari/537.36" version="23.1.1" etag="pU07u6ZB6ogP2-76marx" type="github">
  <diagram name="Page-1" id="5HiGbCDf7_68_CcL3tRa">
    <mxGraphModel>
      <root>
        <mxCell id="0" />
        <mxCell id="1" parent="0" />
      </root>
    </mxGraphModel>
  </diagram>
</mxfile>
